<svg class="rich-terminal" viewBox="0 0 1482 1026.0" xmlns="http://www.w3.org/2000/svg">
    <!-- Generated with Rich https://www.textualize.io -->
    <style>

    @font-face {
        font-family: "Fira Code";
        src: local("FiraCode-Regular"),
                url("https://cdnjs.cloudflare.com/ajax/libs/firacode/6.2.0/woff2/FiraCode-Regular.woff2") format("woff2"),
                url("https://cdnjs.cloudflare.com/ajax/libs/firacode/6.2.0/woff/FiraCode-Regular.woff") format("woff");
        font-style: normal;
        font-weight: 400;
    }
    @font-face {
        font-family: "Fira Code";
        src: local("FiraCode-Bold"),
                url("https://cdnjs.cloudflare.com/ajax/libs/firacode/6.2.0/woff2/FiraCode-Bold.woff2") format("woff2"),
                url("https://cdnjs.cloudflare.com/ajax/libs/firacode/6.2.0/woff/FiraCode-Bold.woff") format("woff");
        font-style: bold;
        font-weight: 700;
    }

    .terminal-1736085175-matrix {
        font-family: Fira Code, monospace;
        font-size: 20px;
        line-height: 24.4px;
        font-variant-east-asian: full-width;
    }

    .terminal-1736085175-title {
        font-size: 18px;
        font-weight: bold;
        font-family: arial;
    }

    .terminal-1736085175-r1 { fill: #c5c8c6 }
.terminal-1736085175-r2 { fill: #ffbb44;font-weight: bold }
.terminal-1736085175-r3 { fill: #0a0a0a }
.terminal-1736085175-r4 { fill: #2a2a2a }
.terminal-1736085175-r5 { fill: #555555;font-weight: bold }
.terminal-1736085175-r6 { fill: #dddddd;font-weight: bold;text-decoration: underline; }
.terminal-1736085175-r7 { fill: #dddddd }
.terminal-1736085175-r8 { fill: #555555 }
.terminal-1736085175-r9 { fill: #dddddd;font-weight: bold }
.terminal-1736085175-r10 { fill: #8b8b8b }
.terminal-1736085175-r11 { fill: #f4005f }
.terminal-1736085175-r12 { fill: #cccccc }
.terminal-1736085175-r13 { fill: #ffa62b;font-weight: bold }
.terminal-1736085175-r14 { fill: #e0e0e0 }
.terminal-1736085175-r15 { fill: #3a3a3a }
    </style>

    <defs>
    <clipPath id="terminal-1736085175-clip-terminal">
      <rect x="0" y="0" width="1463.0" height="975.0" />
    </clipPath>
    <clipPath id="terminal-1736085175-line-0">
    <rect x="0" y="1.5" width="1464" height="24.65"/>
            </clipPath>
<clipPath id="terminal-1736085175-line-1">
    <rect x="0" y="25.9" width="1464" height="24.65"/>
            </clipPath>
<clipPath id="terminal-1736085175-line-2">
    <rect x="0" y="50.3" width="1464" height="24.65"/>
            </clipPath>
<clipPath id="terminal-1736085175-line-3">
    <rect x="0" y="74.7" width="1464" height="24.65"/>
            </clipPath>
<clipPath id="terminal-1736085175-line-4">
    <rect x="0" y="99.1" width="1464" height="24.65"/>
            </clipPath>
<clipPath id="terminal-1736085175-line-5">
    <rect x="0" y="123.5" width="1464" height="24.65"/>
            </clipPath>
<clipPath id="terminal-1736085175-line-6">
    <rect x="0" y="147.9" width="1464" height="24.65"/>
            </clipPath>
<clipPath id="terminal-1736085175-line-7">
    <rect x="0" y="172.3" width="1464" height="24.65"/>
            </clipPath>
<clipPath id="terminal-1736085175-line-8">
    <rect x="0" y="196.7" width="1464" height="24.65"/>
            </clipPath>
<clipPath id="terminal-1736085175-line-9">
    <rect x="0" y="221.1" width="1464" height="24.65"/>
            </clipPath>
<clipPath id="terminal-1736085175-line-10">
    <rect x="0" y="245.5" width="1464" height="24.65"/>
            </clipPath>
<clipPath id="terminal-1736085175-line-11">
    <rect x="0" y="269.9" width="1464" height="24.65"/>
            </clipPath>
<clipPath id="terminal-1736085175-line-12">
    <rect x="0" y="294.3" width="1464" height="24.65"/>
            </clipPath>
<clipPath id="terminal-1736085175-line-13">
    <rect x="0" y="318.7" width="1464" height="24.65"/>
            </clipPath>
<clipPath id="terminal-1736085175-line-14">
    <rect x="0" y="343.1" width="1464" height="24.65"/>
            </clipPath>
<clipPath id="terminal-1736085175-line-15">
    <rect x="0" y="367.5" width="1464" height="24.65"/>
            </clipPath>
<clipPath id="terminal-1736085175-line-16">
    <rect x="0" y="391.9" width="1464" height="24.65"/>
            </clipPath>
<clipPath id="terminal-1736085175-line-17">
    <rect x="0" y="416.3" width="1464" height="24.65"/>
            </clipPath>
<clipPath id="terminal-1736085175-line-18">
    <rect x="0" y="440.7" width="1464" height="24.65"/>
            </clipPath>
<clipPath id="terminal-1736085175-line-19">
    <rect x="0" y="465.1" width="1464" height="24.65"/>
            </clipPath>
<clipPath id="terminal-1736085175-line-20">
    <rect x="0" y="489.5" width="1464" height="24.65"/>
            </clipPath>
<clipPath id="terminal-1736085175-line-21">
    <rect x="0" y="513.9" width="1464" height="24.65"/>
            </clipPath>
<clipPath id="terminal-1736085175-line-22">
    <rect x="0" y="538.3" width="1464" height="24.65"/>
            </clipPath>
<clipPath id="terminal-1736085175-line-23">
    <rect x="0" y="562.7" width="1464" height="24.65"/>
            </clipPath>
<clipPath id="terminal-1736085175-line-24">
    <rect x="0" y="587.1" width="1464" height="24.65"/>
            </clipPath>
<clipPath id="terminal-1736085175-line-25">
    <rect x="0" y="611.5" width="1464" height="24.65"/>
            </clipPath>
<clipPath id="terminal-1736085175-line-26">
    <rect x="0" y="635.9" width="1464" height="24.65"/>
            </clipPath>
<clipPath id="terminal-1736085175-line-27">
    <rect x="0" y="660.3" width="1464" height="24.65"/>
            </clipPath>
<clipPath id="terminal-1736085175-line-28">
    <rect x="0" y="684.7" width="1464" height="24.65"/>
            </clipPath>
<clipPath id="terminal-1736085175-line-29">
    <rect x="0" y="709.1" width="1464" height="24.65"/>
            </clipPath>
<clipPath id="terminal-1736085175-line-30">
    <rect x="0" y="733.5" width="1464" height="24.65"/>
            </clipPath>
<clipPath id="terminal-1736085175-line-31">
    <rect x="0" y="757.9" width="1464" height="24.65"/>
            </clipPath>
<clipPath id="terminal-1736085175-line-32">
    <rect x="0" y="782.3" width="1464" height="24.65"/>
            </clipPath>
<clipPath id="terminal-1736085175-line-33">
    <rect x="0" y="806.7" width="1464" height="24.65"/>
            </clipPath>
<clipPath id="terminal-1736085175-line-34">
    <rect x="0" y="831.1" width="1464" height="24.65"/>
            </clipPath>
<clipPath id="terminal-1736085175-line-35">
    <rect x="0" y="855.5" width="1464" height="24.65"/>
            </clipPath>
<clipPath id="terminal-1736085175-line-36">
    <rect x="0" y="879.9" width="1464" height="24.65"/>
            </clipPath>
<clipPath id="terminal-1736085175-line-37">
    <rect x="0" y="904.3" width="1464" height="24.65"/>
            </clipPath>
<clipPath id="terminal-1736085175-line-38">
    <rect x="0" y="928.7" width="1464" height="24.65"/>
            </clipPath>
    </defs>

    <rect fill="#292929" stroke="rgba(255,255,255,0.35)" stroke-width="1" x="1" y="1" width="1480" height="1024" rx="8"/><text class="terminal-1736085175-title" fill="#c5c8c6" text-anchor="middle" x="740" y="27">DarkRoomApp</text>
            <g transform="translate(26,22)">
            <circle cx="0" cy="0" r="7" fill="#ff5f57"/>
            <circle cx="22" cy="0" r="7" fill="#febc2e"/>
            <circle cx="44" cy="0" r="7" fill="#28c840"/>
            </g>
        
    <g transform="translate(9, 41)" clip-path="url(#terminal-1736085175-clip-terminal)">
    <rect fill="#141414" x="0" y="1.5" width="24.4" height="24.65" shape-rendering="crispEdges"/><rect fill="#141414" x="24.4" y="1.5" width="73.2" height="24.65" shape-rendering="crispEdges"/><rect fill="#141414" x="97.6" y="1.5" width="61" height="24.65" shape-rendering="crispEdges"/><rect fill="#141414" x="158.6" y="1.5" width="1183.4" height="24.65" shape-rendering="crispEdges"/><rect fill="#141414" x="1342" y="1.5" width="97.6" height="24.65" shape-rendering="crispEdges"/><rect fill="#141414" x="1439.6" y="1.5" width="24.4" height="24.65" shape-rendering="crispEdges"/><rect fill="#141414" x="0" y="25.9" width="24.4" height="24.65" shape-rendering="crispEdges"/><rect fill="#141414" x="24.4" y="25.9" width="170.8" height="24.65" shape-rendering="crispEdges"/><rect fill="#141414" x="195.2" y="25.9" width="1244.4" height="24.65" shape-rendering="crispEdges"/><rect fill="#141414" x="1439.6" y="25.9" width="24.4" height="24.65" shape-rendering="crispEdges"/><rect fill="#141414" x="0" y="50.3" width="24.4" height="24.65" shape-rendering="crispEdges"/><rect fill="#141414" x="24.4" y="50.3" width="1415.2" height="24.65" shape-rendering="crispEdges"/><rect fill="#141414" x="1439.6" y="50.3" width="24.4" height="24.65" shape-rendering="crispEdges"/><rect fill="#2a2a2a" x="0" y="74.7" width="12.2" height="24.65" shape-rendering="crispEdges"/><rect fill="#141414" x="12.2" y="74.7" width="951.6" height="24.65" shape-rendering="crispEdges"/><rect fill="#0a0a0a" x="963.8" y="74.7" width="12.2" height="24.65" shape-rendering="crispEdges"/><rect fill="#2a2a2a" x="976" y="74.7" width="12.2" height="24.65" shape-rendering="crispEdges"/><rect fill="#0f0f0f" x="988.2" y="74.7" width="463.6" height="24.65" shape-rendering="crispEdges"/><rect fill="#0a0a0a" x="1451.8" y="74.7" width="12.2" height="24.65" shape-rendering="crispEdges"/><rect fill="#2a2a2a" x="0" y="99.1" width="12.2" height="24.65" shape-rendering="crispEdges"/><rect fill="#141414" x="12.2" y="99.1" width="951.6" height="24.65" shape-rendering="crispEdges"/><rect fill="#0a0a0a" x="963.8" y="99.1" width="12.2" height="24.65" shape-rendering="crispEdges"/><rect fill="#2a2a2a" x="976" y="99.1" width="12.2" height="24.65" shape-rendering="crispEdges"/><rect fill="#0f0f0f" x="988.2" y="99.1" width="463.6" height="24.65" shape-rendering="crispEdges"/><rect fill="#0a0a0a" x="1451.8" y="99.1" width="12.2" height="24.65" shape-rendering="crispEdges"/><rect fill="#2a2a2a" x="0" y="123.5" width="12.2" height="24.65" shape-rendering="crispEdges"/><rect fill="#141414" x="12.2" y="123.5" width="24.4" height="24.65" shape-rendering="crispEdges"/><rect fill="#141414" x="36.6" y="123.5" width="134.2" height="24.65" shape-rendering="crispEdges"/><rect fill="#141414" x="170.8" y="123.5" width="768.6" height="24.65" shape-rendering="crispEdges"/><rect fill="#141414" x="939.4" y="123.5" width="24.4" height="24.65" shape-rendering="crispEdges"/><rect fill="#0a0a0a" x="963.8" y="123.5" width="12.2" height="24.65" shape-rendering="crispEdges"/><rect fill="#2a2a2a" x="976" y="123.5" width="12.2" height="24.65" shape-rendering="crispEdges"/><rect fill="#0f0f0f" x="988.2" y="123.5" width="24.4" height="24.65" shape-rendering="crispEdges"/><rect fill="#0f0f0f" x="1012.6" y="123.5" width="73.2" height="24.65" shape-rendering="crispEdges"/><rect fill="#0f0f0f" x="1085.8" y="123.5" width="341.6" height="24.65" shape-rendering="crispEdges"/><rect fill="#0f0f0f" x="1427.4" y="123.5" width="24.4" height="24.65" shape-rendering="crispEdges"/><rect fill="#0a0a0a" x="1451.8" y="123.5" width="12.2" height="24.65" shape-rendering="crispEdges"/><rect fill="#2a2a2a" x="0" y="147.9" width="12.2" height="24.65" shape-rendering="crispEdges"/><rect fill="#141414" x="12.2" y="147.9" width="24.4" height="24.65" shape-rendering="crispEdges"/><rect fill="#141414" x="36.6" y="147.9" width="0" height="24.65" shape-rendering="crispEdges"/><rect fill="#141414" x="36.6" y="147.9" width="902.8" height="24.65" shape-rendering="crispEdges"/><rect fill="#141414" x="939.4" y="147.9" width="24.4" height="24.65" shape-rendering="crispEdges"/><rect fill="#0a0a0a" x="963.8" y="147.9" width="12.2" height="24.65" shape-rendering="crispEdges"/><rect fill="#2a2a2a" x="976" y="147.9" width="12.2" height="24.65" shape-rendering="crispEdges"/><rect fill="#0f0f0f" x="988.2" y="147.9" width="24.4" height="24.65" shape-rendering="crispEdges"/><rect fill="#0f0f0f" x="1012.6" y="147.9" width="0" height="24.65" shape-rendering="crispEdges"/><rect fill="#0f0f0f" x="1012.6" y="147.9" width="414.8" height="24.65" shape-rendering="crispEdges"/><rect fill="#0f0f0f" x="1427.4" y="147.9" width="24.4" height="24.65" shape-rendering="crispEdges"/><rect fill="#0a0a0a" x="1451.8" y="147.9" width="12.2" height="24.65" shape-rendering="crispEdges"/><rect fill="#2a2a2a" x="0" y="172.3" width="12.2" height="24.65" shape-rendering="crispEdges"/><rect fill="#141414" x="12.2" y="172.3" width="24.4" height="24.65" shape-rendering="crispEdges"/><rect fill="#141414" x="36.6" y="172.3" width="268.4" height="24.65" shape-rendering="crispEdges"/><rect fill="#141414" x="305" y="172.3" width="634.4" height="24.65" shape-rendering="crispEdges"/><rect fill="#141414" x="939.4" y="172.3" width="24.4" height="24.65" shape-rendering="crispEdges"/><rect fill="#0a0a0a" x="963.8" y="172.3" width="12.2" height="24.65" shape-rendering="crispEdges"/><rect fill="#2a2a2a" x="976" y="172.3" width="12.2" height="24.65" shape-rendering="crispEdges"/><rect fill="#0f0f0f" x="988.2" y="172.3" width="463.6" height="24.65" shape-rendering="crispEdges"/><rect fill="#0a0a0a" x="1451.8" y="172.3" width="12.2" height="24.65" shape-rendering="crispEdges"/><rect fill="#2a2a2a" x="0" y="196.7" width="12.2" height="24.65" shape-rendering="crispEdges"/><rect fill="#141414" x="12.2" y="196.7" width="24.4" height="24.65" shape-rendering="crispEdges"/><rect fill="#141414" x="36.6" y="196.7" width="195.2" height="24.65" shape-rendering="crispEdges"/><rect fill="#141414" x="231.8" y="196.7" width="707.6" height="24.65" shape-rendering="crispEdges"/><rect fill="#141414" x="939.4" y="196.7" width="24.4" height="24.65" shape-rendering="crispEdges"/><rect fill="#0a0a0a" x="963.8" y="196.7" width="12.2" height="24.65" shape-rendering="crispEdges"/><rect fill="#2a2a2a" x="976" y="196.7" width="12.2" height="24.65" shape-rendering="crispEdges"/><rect fill="#0f0f0f" x="988.2" y="196.7" width="463.6" height="24.65" shape-rendering="crispEdges"/><rect fill="#0a0a0a" x="1451.8" y="196.7" width="12.2" height="24.65" shape-rendering="crispEdges"/><rect fill="#2a2a2a" x="0" y="221.1" width="12.2" height="24.65" shape-rendering="crispEdges"/><rect fill="#141414" x="12.2" y="221.1" width="24.4" height="24.65" shape-rendering="crispEdges"/><rect fill="#141414" x="36.6" y="221.1" width="0" height="24.65" shape-rendering="crispEdges"/><rect fill="#141414" x="36.6" y="221.1" width="902.8" height="24.65" shape-rendering="crispEdges"/><rect fill="#141414" x="939.4" y="221.1" width="24.4" height="24.65" shape-rendering="crispEdges"/><rect fill="#0a0a0a" x="963.8" y="221.1" width="12.2" height="24.65" shape-rendering="crispEdges"/><rect fill="#0a0a0a" x="976" y="221.1" width="488" height="24.65" shape-rendering="crispEdges"/><rect fill="#2a2a2a" x="0" y="245.5" width="12.2" height="24.65" shape-rendering="crispEdges"/><rect fill="#141414" x="12.2" y="245.5" width="24.4" height="24.65" shape-rendering="crispEdges"/><rect fill="#141414" x="36.6" y="245.5" width="122" height="24.65" shape-rendering="crispEdges"/><rect fill="#141414" x="158.6" y="245.5" width="780.8" height="24.65" shape-rendering="crispEdges"/><rect fill="#141414" x="939.4" y="245.5" width="24.4" height="24.65" shape-rendering="crispEdges"/><rect fill="#0a0a0a" x="963.8" y="245.5" width="12.2" height="24.65" shape-rendering="crispEdges"/><rect fill="#0a0a0a" x="976" y="245.5" width="488" height="24.65" shape-rendering="crispEdges"/><rect fill="#2a2a2a" x="0" y="269.9" width="12.2" height="24.65" shape-rendering="crispEdges"/><rect fill="#141414" x="12.2" y="269.9" width="24.4" height="24.65" shape-rendering="crispEdges"/><rect fill="#141414" x="36.6" y="269.9" width="219.6" height="24.65" shape-rendering="crispEdges"/><rect fill="#141414" x="256.2" y="269.9" width="683.2" height="24.65" shape-rendering="crispEdges"/><rect fill="#141414" x="939.4" y="269.9" width="24.4" height="24.65" shape-rendering="crispEdges"/><rect fill="#0a0a0a" x="963.8" y="269.9" width="12.2" height="24.65" shape-rendering="crispEdges"/><rect fill="#0a0a0a" x="976" y="269.9" width="488" height="24.65" shape-rendering="crispEdges"/><rect fill="#2a2a2a" x="0" y="294.3" width="12.2" height="24.65" shape-rendering="crispEdges"/><rect fill="#141414" x="12.2" y="294.3" width="24.4" height="24.65" shape-rendering="crispEdges"/><rect fill="#141414" x="36.6" y="294.3" width="0" height="24.65" shape-rendering="crispEdges"/><rect fill="#141414" x="36.6" y="294.3" width="902.8" height="24.65" shape-rendering="crispEdges"/><rect fill="#141414" x="939.4" y="294.3" width="24.4" height="24.65" shape-rendering="crispEdges"/><rect fill="#0a0a0a" x="963.8" y="294.3" width="12.2" height="24.65" shape-rendering="crispEdges"/><rect fill="#0a0a0a" x="976" y="294.3" width="488" height="24.65" shape-rendering="crispEdges"/><rect fill="#2a2a2a" x="0" y="318.7" width="12.2" height="24.65" shape-rendering="crispEdges"/><rect fill="#141414" x="12.2" y="318.7" width="951.6" height="24.65" shape-rendering="crispEdges"/><rect fill="#0a0a0a" x="963.8" y="318.7" width="12.2" height="24.65" shape-rendering="crispEdges"/><rect fill="#0a0a0a" x="976" y="318.7" width="488" height="24.65" shape-rendering="crispEdges"/><rect fill="#2a2a2a" x="0" y="343.1" width="12.2" height="24.65" shape-rendering="crispEdges"/><rect fill="#141414" x="12.2" y="343.1" width="951.6" height="24.65" shape-rendering="crispEdges"/><rect fill="#0a0a0a" x="963.8" y="343.1" width="12.2" height="24.65" shape-rendering="crispEdges"/><rect fill="#0a0a0a" x="976" y="343.1" width="488" height="24.65" shape-rendering="crispEdges"/><rect fill="#0a0a0a" x="0" y="367.5" width="1464" height="24.65" shape-rendering="crispEdges"/><rect fill="#0a0a0a" x="0" y="391.9" width="1464" height="24.65" shape-rendering="crispEdges"/><rect fill="#0a0a0a" x="0" y="416.3" width="1464" height="24.65" shape-rendering="crispEdges"/><rect fill="#0a0a0a" x="0" y="440.7" width="1464" height="24.65" shape-rendering="crispEdges"/><rect fill="#0a0a0a" x="0" y="465.1" width="1464" height="24.65" shape-rendering="crispEdges"/><rect fill="#0a0a0a" x="0" y="489.5" width="1464" height="24.65" shape-rendering="crispEdges"/><rect fill="#0a0a0a" x="0" y="513.9" width="1464" height="24.65" shape-rendering="crispEdges"/><rect fill="#0a0a0a" x="0" y="538.3" width="1464" height="24.65" shape-rendering="crispEdges"/><rect fill="#0a0a0a" x="0" y="562.7" width="1464" height="24.65" shape-rendering="crispEdges"/><rect fill="#0a0a0a" x="0" y="587.1" width="1464" height="24.65" shape-rendering="crispEdges"/><rect fill="#0a0a0a" x="0" y="611.5" width="1464" height="24.65" shape-rendering="crispEdges"/><rect fill="#0a0a0a" x="0" y="635.9" width="1464" height="24.65" shape-rendering="crispEdges"/><rect fill="#2a2a2a" x="0" y="660.3" width="12.2" height="24.65" shape-rendering="crispEdges"/><rect fill="#0f0f0f" x="12.2" y="660.3" width="1439.6" height="24.65" shape-rendering="crispEdges"/><rect fill="#0a0a0a" x="1451.8" y="660.3" width="12.2" height="24.65" shape-rendering="crispEdges"/><rect fill="#2a2a2a" x="0" y="684.7" width="12.2" height="24.65" shape-rendering="crispEdges"/><rect fill="#0f0f0f" x="12.2" y="684.7" width="12.2" height="24.65" shape-rendering="crispEdges"/><rect fill="#0f0f0f" x="24.4" y="684.7" width="109.8" height="24.65" shape-rendering="crispEdges"/><rect fill="#0f0f0f" x="134.2" y="684.7" width="73.2" height="24.65" shape-rendering="crispEdges"/><rect fill="#0f0f0f" x="207.4" y="684.7" width="793" height="24.65" shape-rendering="crispEdges"/><rect fill="#0f0f0f" x="1000.4" y="684.7" width="414.8" height="24.65" shape-rendering="crispEdges"/><rect fill="#000000" x="1415.2" y="684.7" width="24.4" height="24.65" shape-rendering="crispEdges"/><rect fill="#0f0f0f" x="1439.6" y="684.7" width="12.2" height="24.65" shape-rendering="crispEdges"/><rect fill="#0a0a0a" x="1451.8" y="684.7" width="12.2" height="24.65" shape-rendering="crispEdges"/><rect fill="#2a2a2a" x="0" y="709.1" width="12.2" height="24.65" shape-rendering="crispEdges"/><rect fill="#0f0f0f" x="12.2" y="709.1" width="12.2" height="24.65" shape-rendering="crispEdges"/><rect fill="#0f0f0f" x="24.4" y="709.1" width="268.4" height="24.65" shape-rendering="crispEdges"/><rect fill="#0f0f0f" x="292.8" y="709.1" width="1122.4" height="24.65" shape-rendering="crispEdges"/><rect fill="#000000" x="1415.2" y="709.1" width="24.4" height="24.65" shape-rendering="crispEdges"/><rect fill="#0f0f0f" x="1439.6" y="709.1" width="12.2" height="24.65" shape-rendering="crispEdges"/><rect fill="#0a0a0a" x="1451.8" y="709.1" width="12.2" height="24.65" shape-rendering="crispEdges"/><rect fill="#2a2a2a" x="0" y="733.5" width="12.2" height="24.65" shape-rendering="crispEdges"/><rect fill="#0f0f0f" x="12.2" y="733.5" width="12.2" height="24.65" shape-rendering="crispEdges"/><rect fill="#0f0f0f" x="24.4" y="733.5" width="109.8" height="24.65" shape-rendering="crispEdges"/><rect fill="#0f0f0f" x="134.2" y="733.5" width="73.2" height="24.65" shape-rendering="crispEdges"/><rect fill="#0f0f0f" x="207.4" y="733.5" width="793" height="24.65" shape-rendering="crispEdges"/><rect fill="#0f0f0f" x="1000.4" y="733.5" width="414.8" height="24.65" shape-rendering="crispEdges"/><rect fill="#000000" x="1415.2" y="733.5" width="24.4" height="24.65" shape-rendering="crispEdges"/><rect fill="#0f0f0f" x="1439.6" y="733.5" width="12.2" height="24.65" shape-rendering="crispEdges"/><rect fill="#0a0a0a" x="1451.8" y="733.5" width="12.2" height="24.65" shape-rendering="crispEdges"/><rect fill="#2a2a2a" x="0" y="757.9" width="12.2" height="24.65" shape-rendering="crispEdges"/><rect fill="#0f0f0f" x="12.2" y="757.9" width="12.2" height="24.65" shape-rendering="crispEdges"/><rect fill="#0f0f0f" x="24.4" y="757.9" width="1390.8" height="24.65" shape-rendering="crispEdges"/><rect fill="#000000" x="1415.2" y="757.9" width="24.4" height="24.65" shape-rendering="crispEdges"/><rect fill="#0f0f0f" x="1439.6" y="757.9" width="12.2" height="24.65" shape-rendering="crispEdges"/><rect fill="#0a0a0a" x="1451.8" y="757.9" width="12.2" height="24.65" shape-rendering="crispEdges"/><rect fill="#2a2a2a" x="0" y="782.3" width="12.2" height="24.65" shape-rendering="crispEdges"/><rect fill="#0f0f0f" x="12.2" y="782.3" width="12.2" height="24.65" shape-rendering="crispEdges"/><rect fill="#0f0f0f" x="24.4" y="782.3" width="1390.8" height="24.65" shape-rendering="crispEdges"/><rect fill="#000000" x="1415.2" y="782.3" width="24.4" height="24.65" shape-rendering="crispEdges"/><rect fill="#0f0f0f" x="1439.6" y="782.3" width="12.2" height="24.65" shape-rendering="crispEdges"/><rect fill="#0a0a0a" x="1451.8" y="782.3" width="12.2" height="24.65" shape-rendering="crispEdges"/><rect fill="#2a2a2a" x="0" y="806.7" width="12.2" height="24.65" shape-rendering="crispEdges"/><rect fill="#0f0f0f" x="12.2" y="806.7" width="12.2" height="24.65" shape-rendering="crispEdges"/><rect fill="#0f0f0f" x="24.4" y="806.7" width="1390.8" height="24.65" shape-rendering="crispEdges"/><rect fill="#000000" x="1415.2" y="806.7" width="24.4" height="24.65" shape-rendering="crispEdges"/><rect fill="#0f0f0f" x="1439.6" y="806.7" width="12.2" height="24.65" shape-rendering="crispEdges"/><rect fill="#0a0a0a" x="1451.8" y="806.7" width="12.2" height="24.65" shape-rendering="crispEdges"/><rect fill="#2a2a2a" x="0" y="831.1" width="12.2" height="24.65" shape-rendering="crispEdges"/><rect fill="#0f0f0f" x="12.2" y="831.1" width="12.2" height="24.65" shape-rendering="crispEdges"/><rect fill="#0f0f0f" x="24.4" y="831.1" width="1390.8" height="24.65" shape-rendering="crispEdges"/><rect fill="#000000" x="1415.2" y="831.1" width="24.4" height="24.65" shape-rendering="crispEdges"/><rect fill="#0f0f0f" x="1439.6" y="831.1" width="12.2" height="24.65" shape-rendering="crispEdges"/><rect fill="#0a0a0a" x="1451.8" y="831.1" width="12.2" height="24.65" shape-rendering="crispEdges"/><rect fill="#2a2a2a" x="0" y="855.5" width="12.2" height="24.65" shape-rendering="crispEdges"/><rect fill="#0f0f0f" x="12.2" y="855.5" width="12.2" height="24.65" shape-rendering="crispEdges"/><rect fill="#0f0f0f" x="24.4" y="855.5" width="1390.8" height="24.65" shape-rendering="crispEdges"/><rect fill="#000000" x="1415.2" y="855.5" width="24.4" height="24.65" shape-rendering="crispEdges"/><rect fill="#0f0f0f" x="1439.6" y="855.5" width="12.2" height="24.65" shape-rendering="crispEdges"/><rect fill="#0a0a0a" x="1451.8" y="855.5" width="12.2" height="24.65" shape-rendering="crispEdges"/><rect fill="#2a2a2a" x="0" y="879.9" width="12.2" height="24.65" shape-rendering="crispEdges"/><rect fill="#0f0f0f" x="12.2" y="879.9" width="12.2" height="24.65" shape-rendering="crispEdges"/><rect fill="#0f0f0f" x="24.4" y="879.9" width="1390.8" height="24.65" shape-rendering="crispEdges"/><rect fill="#000000" x="1415.2" y="879.9" width="24.4" height="24.65" shape-rendering="crispEdges"/><rect fill="#0f0f0f" x="1439.6" y="879.9" width="12.2" height="24.65" shape-rendering="crispEdges"/><rect fill="#0a0a0a" x="1451.8" y="879.9" width="12.2" height="24.65" shape-rendering="crispEdges"/><rect fill="#2a2a2a" x="0" y="904.3" width="12.2" height="24.65" shape-rendering="crispEdges"/><rect fill="#0f0f0f" x="12.2" y="904.3" width="12.2" height="24.65" shape-rendering="crispEdges"/><rect fill="#0f0f0f" x="24.4" y="904.3" width="1390.8" height="24.65" shape-rendering="crispEdges"/><rect fill="#000000" x="1415.2" y="904.3" width="24.4" height="24.65" shape-rendering="crispEdges"/><rect fill="#0f0f0f" x="1439.6" y="904.3" width="12.2" height="24.65" shape-rendering="crispEdges"/><rect fill="#0a0a0a" x="1451.8" y="904.3" width="12.2" height="24.65" shape-rendering="crispEdges"/><rect fill="#2a2a2a" x="0" y="928.7" width="12.2" height="24.65" shape-rendering="crispEdges"/><rect fill="#0f0f0f" x="12.2" y="928.7" width="1439.6" height="24.65" shape-rendering="crispEdges"/><rect fill="#0a0a0a" x="1451.8" y="928.7" width="12.2" height="24.65" shape-rendering="crispEdges"/><rect fill="#111111" x="0" y="953.1" width="36.6" height="24.65" shape-rendering="crispEdges"/><rect fill="#111111" x="36.6" y="953.1" width="61" height="24.65" shape-rendering="crispEdges"/><rect fill="#111111" x="97.6" y="953.1" width="36.6" height="24.65" shape-rendering="crispEdges"/><rect fill="#111111" x="134.2" y="953.1" width="97.6" height="24.65" shape-rendering="crispEdges"/><rect fill="#111111" x="231.8" y="953.1" width="36.6" height="24.65" shape-rendering="crispEdges"/><rect fill="#111111" x="268.4" y="953.1" width="61" height="24.65" shape-rendering="crispEdges"/><rect fill="#111111" x="329.4" y="953.1" width="36.6" height="24.65" shape-rendering="crispEdges"/><rect fill="#111111" x="366" y="953.1" width="73.2" height="24.65" shape-rendering="crispEdges"/><rect fill="#111111" x="439.2" y="953.1" width="36.6" height="24.65" shape-rendering="crispEdges"/><rect fill="#111111" x="475.8" y="953.1" width="61" height="24.65" shape-rendering="crispEdges"/><rect fill="#111111" x="536.8" y="953.1" width="36.6" height="24.65" shape-rendering="crispEdges"/><rect fill="#111111" x="573.4" y="953.1" width="61" height="24.65" shape-rendering="crispEdges"/><rect fill="#111111" x="634.4" y="953.1" width="36.6" height="24.65" shape-rendering="crispEdges"/><rect fill="#111111" x="671" y="953.1" width="134.2" height="24.65" shape-rendering="crispEdges"/><rect fill="#111111" x="805.2" y="953.1" width="36.6" height="24.65" shape-rendering="crispEdges"/><rect fill="#111111" x="841.8" y="953.1" width="73.2" height="24.65" shape-rendering="crispEdges"/><rect fill="#111111" x="915" y="953.1" width="36.6" height="24.65" shape-rendering="crispEdges"/><rect fill="#111111" x="951.6" y="953.1" width="158.6" height="24.65" shape-rendering="crispEdges"/><rect fill="#111111" x="1110.2" y="953.1" width="36.6" height="24.65" shape-rendering="crispEdges"/><rect fill="#111111" x="1146.8" y="953.1" width="134.2" height="24.65" shape-rendering="crispEdges"/><rect fill="#111111" x="1281" y="953.1" width="36.6" height="24.65" shape-rendering="crispEdges"/><rect fill="#111111" x="1317.6" y="953.1" width="12.2" height="24.65" shape-rendering="crispEdges"/><rect fill="#111111" x="1329.8" y="953.1" width="24.4" height="24.65" shape-rendering="crispEdges"/><rect fill="#111111" x="1354.2" y="953.1" width="48.8" height="24.65" shape-rendering="crispEdges"/><rect fill="#111111" x="1403" y="953.1" width="48.8" height="24.65" shape-rendering="crispEdges"/><rect fill="#111111" x="1451.8" y="953.1" width="12.2" height="24.65" shape-rendering="crispEdges"/>
    <g class="terminal-1736085175-matrix">
    <text class="terminal-1736085175-r2" x="24.4" y="20" textLength="73.2" clip-path="url(#terminal-1736085175-line-0)">A&#160;Dark</text><text class="terminal-1736085175-r2" x="97.6" y="20" textLength="61" clip-path="url(#terminal-1736085175-line-0)">&#160;Room</text><text class="terminal-1736085175-r1" x="1464" y="20" textLength="12.2" clip-path="url(#terminal-1736085175-line-0)">
</text><text class="terminal-1736085175-r2" x="24.4" y="44.4" textLength="170.8" clip-path="url(#terminal-1736085175-line-1)">*1&#160;A&#160;Dark&#160;Room</text><text class="terminal-1736085175-r1" x="1464" y="44.4" textLength="12.2" clip-path="url(#terminal-1736085175-line-1)">
</text><text class="terminal-1736085175-r1" x="1464" y="68.8" textLength="12.2" clip-path="url(#terminal-1736085175-line-2)">
</text><text class="terminal-1736085175-r3" x="0" y="93.2" textLength="12.2" clip-path="url(#terminal-1736085175-line-3)">▊</text><text class="terminal-1736085175-r4" x="12.2" y="93.2" textLength="951.6" clip-path="url(#terminal-1736085175-line-3)">▔▔▔▔▔▔▔▔▔▔▔▔▔▔▔▔▔▔▔▔▔▔▔▔▔▔▔▔▔▔▔▔▔▔▔▔▔▔▔▔▔▔▔▔▔▔▔▔▔▔▔▔▔▔▔▔▔▔▔▔▔▔▔▔▔▔▔▔▔▔▔▔▔▔▔▔▔▔</text><text class="terminal-1736085175-r4" x="963.8" y="93.2" textLength="12.2" clip-path="url(#terminal-1736085175-line-3)">▎</text><text class="terminal-1736085175-r3" x="976" y="93.2" textLength="12.2" clip-path="url(#terminal-1736085175-line-3)">▊</text><text class="terminal-1736085175-r4" x="988.2" y="93.2" textLength="463.6" clip-path="url(#terminal-1736085175-line-3)">▔▔▔▔▔▔▔▔▔▔▔▔▔▔▔▔▔▔▔▔▔▔▔▔▔▔▔▔▔▔▔▔▔▔▔▔▔▔</text><text class="terminal-1736085175-r4" x="1451.8" y="93.2" textLength="12.2" clip-path="url(#terminal-1736085175-line-3)">▎</text><text class="terminal-1736085175-r1" x="1464" y="93.2" textLength="12.2" clip-path="url(#terminal-1736085175-line-3)">
</text><text class="terminal-1736085175-r3" x="0" y="117.6" textLength="12.2" clip-path="url(#terminal-1736085175-line-4)">▊</text><text class="terminal-1736085175-r4" x="963.8" y="117.6" textLength="12.2" clip-path="url(#terminal-1736085175-line-4)">▎</text><text class="terminal-1736085175-r3" x="976" y="117.6" textLength="12.2" clip-path="url(#terminal-1736085175-line-4)">▊</text><text class="terminal-1736085175-r4" x="1451.8" y="117.6" textLength="12.2" clip-path="url(#terminal-1736085175-line-4)">▎</text><text class="terminal-1736085175-r1" x="1464" y="117.6" textLength="12.2" clip-path="url(#terminal-1736085175-line-4)">
</text><text class="terminal-1736085175-r3" x="0" y="142" textLength="12.2" clip-path="url(#terminal-1736085175-line-5)">▊</text><text class="terminal-1736085175-r5" x="36.6" y="142" textLength="134.2" clip-path="url(#terminal-1736085175-line-5)">A&#160;Dark&#160;Room</text><text class="terminal-1736085175-r4" x="963.8" y="142" textLength="12.2" clip-path="url(#terminal-1736085175-line-5)">▎</text><text class="terminal-1736085175-r3" x="976" y="142" textLength="12.2" clip-path="url(#terminal-1736085175-line-5)">▊</text><text class="terminal-1736085175-r6" x="1012.6" y="142" textLength="73.2" clip-path="url(#terminal-1736085175-line-5)">stores</text><text class="terminal-1736085175-r4" x="1451.8" y="142" textLength="12.2" clip-path="url(#terminal-1736085175-line-5)">▎</text><text class="terminal-1736085175-r1" x="1464" y="142" textLength="12.2" clip-path="url(#terminal-1736085175-line-5)">
</text><text class="terminal-1736085175-r3" x="0" y="166.4" textLength="12.2" clip-path="url(#terminal-1736085175-line-6)">▊</text><text class="terminal-1736085175-r4" x="963.8" y="166.4" textLength="12.2" clip-path="url(#terminal-1736085175-line-6)">▎</text><text class="terminal-1736085175-r3" x="976" y="166.4" textLength="12.2" clip-path="url(#terminal-1736085175-line-6)">▊</text><text class="terminal-1736085175-r4" x="1451.8" y="166.4" textLength="12.2" clip-path="url(#terminal-1736085175-line-6)">▎</text><text class="terminal-1736085175-r1" x="1464" y="166.4" textLength="12.2" clip-path="url(#terminal-1736085175-line-6)">
</text><text class="terminal-1736085175-r3" x="0" y="190.8" textLength="12.2" clip-path="url(#terminal-1736085175-line-7)">▊</text><text class="terminal-1736085175-r8" x="36.6" y="190.8" textLength="268.4" clip-path="url(#terminal-1736085175-line-7)">&#160;&#160;fire:&#160;dead&#160;&#160;&#160;&#160;&#160;&#160;&#160;&#160;&#160;·</text><text class="terminal-1736085175-r4" x="963.8" y="190.8" textLength="12.2" clip-path="url(#terminal-1736085175-line-7)">▎</text><text class="terminal-1736085175-r3" x="976" y="190.8" textLength="12.2" clip-path="url(#terminal-1736085175-line-7)">▊</text><text class="terminal-1736085175-r4" x="1451.8" y="190.8" textLength="12.2" clip-path="url(#terminal-1736085175-line-7)">▎</text><text class="terminal-1736085175-r1" x="1464" y="190.8" textLength="12.2" clip-path="url(#terminal-1736085175-line-7)">
</text><text class="terminal-1736085175-r3" x="0" y="215.2" textLength="12.2" clip-path="url(#terminal-1736085175-line-8)">▊</text><text class="terminal-1736085175-r7" x="36.6" y="215.2" textLength="195.2" clip-path="url(#terminal-1736085175-line-8)">&#160;&#160;room:&#160;freezing</text><text class="terminal-1736085175-r4" x="963.8" y="215.2" textLength="12.2" clip-path="url(#terminal-1736085175-line-8)">▎</text><text class="terminal-1736085175-r3" x="976" y="215.2" textLength="12.2" clip-path="url(#terminal-1736085175-line-8)">▊</text><text class="terminal-1736085175-r4" x="988.2" y="215.2" textLength="463.6" clip-path="url(#terminal-1736085175-line-8)">▁▁▁▁▁▁▁▁▁▁▁▁▁▁▁▁▁▁▁▁▁▁▁▁▁▁▁▁▁▁▁▁▁▁▁▁▁▁</text><text class="terminal-1736085175-r4" x="1451.8" y="215.2" textLength="12.2" clip-path="url(#terminal-1736085175-line-8)">▎</text><text class="terminal-1736085175-r1" x="1464" y="215.2" textLength="12.2" clip-path="url(#terminal-1736085175-line-8)">
</text><text class="terminal-1736085175-r3" x="0" y="239.6" textLength="12.2" clip-path="url(#terminal-1736085175-line-9)">▊</text><text class="terminal-1736085175-r4" x="963.8" y="239.6" textLength="12.2" clip-path="url(#terminal-1736085175-line-9)">▎</text><text class="terminal-1736085175-r1" x="1464" y="239.6" textLength="12.2" clip-path="url(#terminal-1736085175-line-9)">
</text><text class="terminal-1736085175-r3" x="0" y="264" textLength="12.2" clip-path="url(#terminal-1736085175-line-10)">▊</text><text class="terminal-1736085175-r9" x="36.6" y="264" textLength="122" clip-path="url(#terminal-1736085175-line-10)">&#160;&#160;actions:</text><text class="terminal-1736085175-r4" x="963.8" y="264" textLength="12.2" clip-path="url(#terminal-1736085175-line-10)">▎</text><text class="terminal-1736085175-r1" x="1464" y="264" textLength="12.2" clip-path="url(#terminal-1736085175-line-10)">
</text><text class="terminal-1736085175-r3" x="0" y="288.4" textLength="12.2" clip-path="url(#terminal-1736085175-line-11)">▊</text><text class="terminal-1736085175-r7" x="36.6" y="288.4" textLength="219.6" clip-path="url(#terminal-1736085175-line-11)">&#160;&#160;&#160;&#160;[L]&#160;light&#160;fire</text><text class="terminal-1736085175-r4" x="963.8" y="288.4" textLength="12.2" clip-path="url(#terminal-1736085175-line-11)">▎</text><text class="terminal-1736085175-r1" x="1464" y="288.4" textLength="12.2" clip-path="url(#terminal-1736085175-line-11)">
</text><text class="terminal-1736085175-r3" x="0" y="312.8" textLength="12.2" clip-path="url(#terminal-1736085175-line-12)">▊</text><text class="terminal-1736085175-r4" x="963.8" y="312.8" textLength="12.2" clip-path="url(#terminal-1736085175-line-12)">▎</text><text class="terminal-1736085175-r1" x="1464" y="312.8" textLength="12.2" clip-path="url(#terminal-1736085175-line-12)">
</text><text class="terminal-1736085175-r3" x="0" y="337.2" textLength="12.2" clip-path="url(#terminal-1736085175-line-13)">▊</text><text class="terminal-1736085175-r4" x="963.8" y="337.2" textLength="12.2" clip-path="url(#terminal-1736085175-line-13)">▎</text><text class="terminal-1736085175-r1" x="1464" y="337.2" textLength="12.2" clip-path="url(#terminal-1736085175-line-13)">
</text><text class="terminal-1736085175-r3" x="0" y="361.6" textLength="12.2" clip-path="url(#terminal-1736085175-line-14)">▊</text><text class="terminal-1736085175-r4" x="12.2" y="361.6" textLength="951.6" clip-path="url(#terminal-1736085175-line-14)">▁▁▁▁▁▁▁▁▁▁▁▁▁▁▁▁▁▁▁▁▁▁▁▁▁▁▁▁▁▁▁▁▁▁▁▁▁▁▁▁▁▁▁▁▁▁▁▁▁▁▁▁▁▁▁▁▁▁▁▁▁▁▁▁▁▁▁▁▁▁▁▁▁▁▁▁▁▁</text><text class="terminal-1736085175-r4" x="963.8" y="361.6" textLength="12.2" clip-path="url(#terminal-1736085175-line-14)">▎</text><text class="terminal-1736085175-r1" x="1464" y="361.6" textLength="12.2" clip-path="url(#terminal-1736085175-line-14)">
</text><text class="terminal-1736085175-r1" x="1464" y="386" textLength="12.2" clip-path="url(#terminal-1736085175-line-15)">
</text><text class="terminal-1736085175-r1" x="1464" y="410.4" textLength="12.2" clip-path="url(#terminal-1736085175-line-16)">
</text><text class="terminal-1736085175-r1" x="1464" y="434.8" textLength="12.2" clip-path="url(#terminal-1736085175-line-17)">
</text><text class="terminal-1736085175-r1" x="1464" y="459.2" textLength="12.2" clip-path="url(#terminal-1736085175-line-18)">
</text><text class="terminal-1736085175-r1" x="1464" y="483.6" textLength="12.2" clip-path="url(#terminal-1736085175-line-19)">
</text><text class="terminal-1736085175-r1" x="1464" y="508" textLength="12.2" clip-path="url(#terminal-1736085175-line-20)">
</text><text class="terminal-1736085175-r1" x="1464" y="532.4" textLength="12.2" clip-path="url(#terminal-1736085175-line-21)">
</text><text class="terminal-1736085175-r1" x="1464" y="556.8" textLength="12.2" clip-path="url(#terminal-1736085175-line-22)">
</text><text class="terminal-1736085175-r1" x="1464" y="581.2" textLength="12.2" clip-path="url(#terminal-1736085175-line-23)">
</text><text class="terminal-1736085175-r1" x="1464" y="605.6" textLength="12.2" clip-path="url(#terminal-1736085175-line-24)">
</text><text class="terminal-1736085175-r1" x="1464" y="630" textLength="12.2" clip-path="url(#terminal-1736085175-line-25)">
</text><text class="terminal-1736085175-r1" x="1464" y="654.4" textLength="12.2" clip-path="url(#terminal-1736085175-line-26)">
</text><text class="terminal-1736085175-r3" x="0" y="678.8" textLength="12.2" clip-path="url(#terminal-1736085175-line-27)">▊</text><text class="terminal-1736085175-r4" x="12.2" y="678.8" textLength="1439.6" clip-path="url(#terminal-1736085175-line-27)">▔▔▔▔▔▔▔▔▔▔▔▔▔▔▔▔▔▔▔▔▔▔▔▔▔▔▔▔▔▔▔▔▔▔▔▔▔▔▔▔▔▔▔▔▔▔▔▔▔▔▔▔▔▔▔▔▔▔▔▔▔▔▔▔▔▔▔▔▔▔▔▔▔▔▔▔▔▔▔▔▔▔▔▔▔▔▔▔▔▔▔▔▔▔▔▔▔▔▔▔▔▔▔▔▔▔▔▔▔▔▔▔▔▔▔▔▔▔</text><text class="terminal-1736085175-r4" x="1451.8" y="678.8" textLength="12.2" clip-path="url(#terminal-1736085175-line-27)">▎</text><text class="terminal-1736085175-r1" x="1464" y="678.8" textLength="12.2" clip-path="url(#terminal-1736085175-line-27)">
</text><text class="terminal-1736085175-r3" x="0" y="703.2" textLength="12.2" clip-path="url(#terminal-1736085175-line-28)">▊</text><text class="terminal-1736085175-r10" x="24.4" y="703.2" textLength="109.8" clip-path="url(#terminal-1736085175-line-28)">[&#160;&#160;&#160;0.1]&#160;</text><text class="terminal-1736085175-r11" x="134.2" y="703.2" textLength="73.2" clip-path="url(#terminal-1736085175-line-28)">ship:&#160;</text><text class="terminal-1736085175-r12" x="207.4" y="703.2" textLength="793" clip-path="url(#terminal-1736085175-line-28)">somewhere&#160;above&#160;the&#160;debris&#160;cloud,&#160;the&#160;wanderer&#160;fleet&#160;hovers.&#160;been</text><text class="terminal-1736085175-r4" x="1451.8" y="703.2" textLength="12.2" clip-path="url(#terminal-1736085175-line-28)">▎</text><text class="terminal-1736085175-r1" x="1464" y="703.2" textLength="12.2" clip-path="url(#terminal-1736085175-line-28)">
</text><text class="terminal-1736085175-r3" x="0" y="727.6" textLength="12.2" clip-path="url(#terminal-1736085175-line-29)">▊</text><text class="terminal-1736085175-r12" x="24.4" y="727.6" textLength="268.4" clip-path="url(#terminal-1736085175-line-29)">on&#160;this&#160;rock&#160;too&#160;long.</text><text class="terminal-1736085175-r4" x="1451.8" y="727.6" textLength="12.2" clip-path="url(#terminal-1736085175-line-29)">▎</text><text class="terminal-1736085175-r1" x="1464" y="727.6" textLength="12.2" clip-path="url(#terminal-1736085175-line-29)">
</text><text class="terminal-1736085175-r3" x="0" y="752" textLength="12.2" clip-path="url(#terminal-1736085175-line-30)">▊</text><text class="terminal-1736085175-r10" x="24.4" y="752" textLength="109.8" clip-path="url(#terminal-1736085175-line-30)">[&#160;&#160;&#160;0.1]&#160;</text><text class="terminal-1736085175-r11" x="134.2" y="752" textLength="73.2" clip-path="url(#terminal-1736085175-line-30)">ship:&#160;</text><text class="terminal-1736085175-r12" x="207.4" y="752" textLength="793" clip-path="url(#terminal-1736085175-line-30)">the&#160;ship&#160;lifts&#160;off&#160;through&#160;the&#160;haze.&#160;above&#160;the&#160;clouds,&#160;the&#160;stars.</text><text class="terminal-1736085175-r4" x="1451.8" y="752" textLength="12.2" clip-path="url(#terminal-1736085175-line-30)">▎</text><text class="terminal-1736085175-r1" x="1464" y="752" textLength="12.2" clip-path="url(#terminal-1736085175-line-30)">
</text><text class="terminal-1736085175-r3" x="0" y="776.4" textLength="12.2" clip-path="url(#terminal-1736085175-line-31)">▊</text><text class="terminal-1736085175-r4" x="1451.8" y="776.4" textLength="12.2" clip-path="url(#terminal-1736085175-line-31)">▎</text><text class="terminal-1736085175-r1" x="1464" y="776.4" textLength="12.2" clip-path="url(#terminal-1736085175-line-31)">
</text><text class="terminal-1736085175-r3" x="0" y="800.8" textLength="12.2" clip-path="url(#terminal-1736085175-line-32)">▊</text><text class="terminal-1736085175-r4" x="1451.8" y="800.8" textLength="12.2" clip-path="url(#terminal-1736085175-line-32)">▎</text><text class="terminal-1736085175-r1" x="1464" y="800.8" textLength="12.2" clip-path="url(#terminal-1736085175-line-32)">
</text><text class="terminal-1736085175-r3" x="0" y="825.2" textLength="12.2" clip-path="url(#terminal-1736085175-line-33)">▊</text><text class="terminal-1736085175-r4" x="1451.8" y="825.2" textLength="12.2" clip-path="url(#terminal-1736085175-line-33)">▎</text><text class="terminal-1736085175-r1" x="1464" y="825.2" textLength="12.2" clip-path="url(#terminal-1736085175-line-33)">
</text><text class="terminal-1736085175-r3" x="0" y="849.6" textLength="12.2" clip-path="url(#terminal-1736085175-line-34)">▊</text><text class="terminal-1736085175-r4" x="1451.8" y="849.6" textLength="12.2" clip-path="url(#terminal-1736085175-line-34)">▎</text><text class="terminal-1736085175-r1" x="1464" y="849.6" textLength="12.2" clip-path="url(#terminal-1736085175-line-34)">
</text><text class="terminal-1736085175-r3" x="0" y="874" textLength="12.2" clip-path="url(#terminal-1736085175-line-35)">▊</text><text class="terminal-1736085175-r4" x="1451.8" y="874" textLength="12.2" clip-path="url(#terminal-1736085175-line-35)">▎</text><text class="terminal-1736085175-r1" x="1464" y="874" textLength="12.2" clip-path="url(#terminal-1736085175-line-35)">
</text><text class="terminal-1736085175-r3" x="0" y="898.4" textLength="12.2" clip-path="url(#terminal-1736085175-line-36)">▊</text><text class="terminal-1736085175-r4" x="1451.8" y="898.4" textLength="12.2" clip-path="url(#terminal-1736085175-line-36)">▎</text><text class="terminal-1736085175-r1" x="1464" y="898.4" textLength="12.2" clip-path="url(#terminal-1736085175-line-36)">
</text><text class="terminal-1736085175-r3" x="0" y="922.8" textLength="12.2" clip-path="url(#terminal-1736085175-line-37)">▊</text><text class="terminal-1736085175-r4" x="1451.8" y="922.8" textLength="12.2" clip-path="url(#terminal-1736085175-line-37)">▎</text><text class="terminal-1736085175-r1" x="1464" y="922.8" textLength="12.2" clip-path="url(#terminal-1736085175-line-37)">
</text><text class="terminal-1736085175-r3" x="0" y="947.2" textLength="12.2" clip-path="url(#terminal-1736085175-line-38)">▊</text><text class="terminal-1736085175-r4" x="12.2" y="947.2" textLength="1439.6" clip-path="url(#terminal-1736085175-line-38)">▁▁▁▁▁▁▁▁▁▁▁▁▁▁▁▁▁▁▁▁▁▁▁▁▁▁▁▁▁▁▁▁▁▁▁▁▁▁▁▁▁▁▁▁▁▁▁▁▁▁▁▁▁▁▁▁▁▁▁▁▁▁▁▁▁▁▁▁▁▁▁▁▁▁▁▁▁▁▁▁▁▁▁▁▁▁▁▁▁▁▁▁▁▁▁▁▁▁▁▁▁▁▁▁▁▁▁▁▁▁▁▁▁▁▁▁▁▁</text><text class="terminal-1736085175-r4" x="1451.8" y="947.2" textLength="12.2" clip-path="url(#terminal-1736085175-line-38)">▎</text><text class="terminal-1736085175-r1" x="1464" y="947.2" textLength="12.2" clip-path="url(#terminal-1736085175-line-38)">
</text><text class="terminal-1736085175-r13" x="0" y="971.6" textLength="36.6" clip-path="url(#terminal-1736085175-line-39)">&#160;1&#160;</text><text class="terminal-1736085175-r14" x="36.6" y="971.6" textLength="61" clip-path="url(#terminal-1736085175-line-39)">Room&#160;</text><text class="terminal-1736085175-r13" x="97.6" y="971.6" textLength="36.6" clip-path="url(#terminal-1736085175-line-39)">&#160;2&#160;</text><text class="terminal-1736085175-r14" x="134.2" y="971.6" textLength="97.6" clip-path="url(#terminal-1736085175-line-39)">Outside&#160;</text><text class="terminal-1736085175-r13" x="231.8" y="971.6" textLength="36.6" clip-path="url(#terminal-1736085175-line-39)">&#160;3&#160;</text><text class="terminal-1736085175-r14" x="268.4" y="971.6" textLength="61" clip-path="url(#terminal-1736085175-line-39)">Path&#160;</text><text class="terminal-1736085175-r13" x="329.4" y="971.6" textLength="36.6" clip-path="url(#terminal-1736085175-line-39)">&#160;4&#160;</text><text class="terminal-1736085175-r14" x="366" y="971.6" textLength="73.2" clip-path="url(#terminal-1736085175-line-39)">World&#160;</text><text class="terminal-1736085175-r13" x="439.2" y="971.6" textLength="36.6" clip-path="url(#terminal-1736085175-line-39)">&#160;5&#160;</text><text class="terminal-1736085175-r14" x="475.8" y="971.6" textLength="61" clip-path="url(#terminal-1736085175-line-39)">Ship&#160;</text><text class="terminal-1736085175-r13" x="536.8" y="971.6" textLength="36.6" clip-path="url(#terminal-1736085175-line-39)">&#160;q&#160;</text><text class="terminal-1736085175-r14" x="573.4" y="971.6" textLength="61" clip-path="url(#terminal-1736085175-line-39)">Quit&#160;</text><text class="terminal-1736085175-r13" x="634.4" y="971.6" textLength="36.6" clip-path="url(#terminal-1736085175-line-39)">&#160;l&#160;</text><text class="terminal-1736085175-r14" x="671" y="971.6" textLength="134.2" clip-path="url(#terminal-1736085175-line-39)">Light&#160;fire&#160;</text><text class="terminal-1736085175-r13" x="805.2" y="971.6" textLength="36.6" clip-path="url(#terminal-1736085175-line-39)">&#160;s&#160;</text><text class="terminal-1736085175-r14" x="841.8" y="971.6" textLength="73.2" clip-path="url(#terminal-1736085175-line-39)">Stoke&#160;</text><text class="terminal-1736085175-r13" x="915" y="971.6" textLength="36.6" clip-path="url(#terminal-1736085175-line-39)">&#160;b&#160;</text><text class="terminal-1736085175-r14" x="951.6" y="971.6" textLength="158.6" clip-path="url(#terminal-1736085175-line-39)">Craft&#160;prefix&#160;</text><text class="terminal-1736085175-r13" x="1110.2" y="971.6" textLength="36.6" clip-path="url(#terminal-1736085175-line-39)">&#160;y&#160;</text><text class="terminal-1736085175-r14" x="1146.8" y="971.6" textLength="134.2" clip-path="url(#terminal-1736085175-line-39)">Buy&#160;prefix&#160;</text><text class="terminal-1736085175-r13" x="1281" y="971.6" textLength="36.6" clip-path="url(#terminal-1736085175-line-39)">&#160;g&#160;</text><text class="terminal-1736085175-r15" x="1317.6" y="971.6" textLength="12.2" clip-path="url(#terminal-1736085175-line-39)">▏</text><text class="terminal-1736085175-r13" x="1329.8" y="971.6" textLength="24.4" clip-path="url(#terminal-1736085175-line-39)">^p</text><text class="terminal-1736085175-r14" x="1354.2" y="971.6" textLength="48.8" clip-path="url(#terminal-1736085175-line-39)">&#160;pal</text><text class="terminal-1736085175-r14" x="1403" y="971.6" textLength="48.8" clip-path="url(#terminal-1736085175-line-39)">ette</text>
    </g>
    </g>
</svg>
